<svg xmlns="http://www.w3.org/2000/svg" width="1040" height="800" viewBox="0 0 1040 800" role="img" aria-labelledby="title desc">
<title id="title">TunSopheak GitHub analytics</title>
<desc id="desc">Automatically generated public contribution summary, weekly trend, and repository language distribution.</desc>
<defs>
  <linearGradient id="background" x1="0" y1="0" x2="1" y2="1"><stop offset="0" stop-color="#0d1117"/><stop offset="1" stop-color="#111827"/></linearGradient>
  <linearGradient id="line" x1="0" y1="0" x2="1" y2="0"><stop offset="0" stop-color="#1f6feb"/><stop offset="1" stop-color="#79c0ff"/></linearGradient>
  <linearGradient id="area" x1="0" y1="0" x2="0" y2="1"><stop offset="0" stop-color="#58a6ff" stop-opacity=".38"/><stop offset="1" stop-color="#58a6ff" stop-opacity=".02"/></linearGradient>
  <style>
    .title{font-family:'Segoe UI',Arial,sans-serif;font-size:28px;font-weight:750;fill:#f0f6fc}
    .subtitle{font-family:'Segoe UI',Arial,sans-serif;font-size:15px;font-weight:500;fill:#8b949e}
    .metric{font-family:'Segoe UI',Arial,sans-serif;font-size:30px;font-weight:750;fill:#f0f6fc}
    .metricLabel{font-family:'Segoe UI',Arial,sans-serif;font-size:13px;font-weight:600;fill:#8b949e;letter-spacing:.6px}
    .section{font-family:'Segoe UI',Arial,sans-serif;font-size:18px;font-weight:700;fill:#c9d1d9}
    .axis{font-family:'Segoe UI',Arial,sans-serif;font-size:12px;font-weight:500;fill:#6e7681}
    .language{font-family:'Segoe UI',Arial,sans-serif;font-size:14px;font-weight:600;fill:#c9d1d9}
    .percent{font-family:'Segoe UI',Arial,sans-serif;font-size:13px;font-weight:600;fill:#8b949e}
  </style>
</defs>
<rect width="1040" height="800" rx="24" fill="url(#background)" stroke="#30363d"/>
<circle cx="918" cy="72" r="125" fill="#1f6feb" opacity=".10"/>
<text x="44.0" y="52.0" class="title" text-anchor="start">GitHub Activity</text>
<text x="44.0" y="80.0" class="subtitle" text-anchor="start">Public activity for @TunSopheak · Generated inside this repository</text>
<text x="996.0" y="52.0" class="subtitle" text-anchor="end">Last refreshed · 16 Aug 2026</text>
<rect x="44.0" y="108" width="226.0" height="104" rx="16" fill="#161b22" stroke="#30363d"/><text x="64.0" y="151.0" class="metric" text-anchor="start">344</text><text x="64.0" y="182.0" class="metricLabel" text-anchor="start">CONTRIBUTIONS</text><rect x="286.0" y="108" width="226.0" height="104" rx="16" fill="#161b22" stroke="#30363d"/><text x="306.0" y="151.0" class="metric" text-anchor="start">30</text><text x="306.0" y="182.0" class="metricLabel" text-anchor="start">ACTIVE DAYS</text><rect x="528.0" y="108" width="226.0" height="104" rx="16" fill="#161b22" stroke="#30363d"/><text x="548.0" y="151.0" class="metric" text-anchor="start">6 days</text><text x="548.0" y="182.0" class="metricLabel" text-anchor="start">LONGEST STREAK</text><rect x="770.0" y="108" width="226.0" height="104" rx="16" fill="#161b22" stroke="#30363d"/><text x="790.0" y="151.0" class="metric" text-anchor="start">2 days</text><text x="790.0" y="182.0" class="metricLabel" text-anchor="start">CURRENT STREAK</text><text x="44.0" y="248.0" class="section" text-anchor="start">Contribution trend · latest 26 weeks</text><rect x="44" y="260" width="952" height="292" rx="18" fill="#161b22" stroke="#30363d"/><line x1="72" y1="258.0" x2="968" y2="258.0" stroke="#21262d"/><text x="58.0" y="262.0" class="axis" text-anchor="end">95</text><line x1="72" y1="322.5" x2="968" y2="322.5" stroke="#21262d"/><text x="58.0" y="326.5" class="axis" text-anchor="end">71</text><line x1="72" y1="387.0" x2="968" y2="387.0" stroke="#21262d"/><text x="58.0" y="391.0" class="axis" text-anchor="end">48</text><line x1="72" y1="451.5" x2="968" y2="451.5" stroke="#21262d"/><text x="58.0" y="455.5" class="axis" text-anchor="end">24</text><line x1="72" y1="516.0" x2="968" y2="516.0" stroke="#21262d"/><text x="58.0" y="520.0" class="axis" text-anchor="end">0</text><path d="M 72.0 516.0 L 107.8 516.0 L 143.7 516.0 L 179.5 472.5 L 215.4 516.0 L 251.2 516.0 L 287.0 516.0 L 322.9 516.0 L 358.7 516.0 L 394.6 516.0 L 430.4 516.0 L 466.2 516.0 L 502.1 516.0 L 537.9 516.0 L 573.8 516.0 L 609.6 516.0 L 645.4 516.0 L 681.3 266.1 L 717.1 258.0 L 753.0 312.3 L 788.8 464.4 L 824.6 478.0 L 860.5 513.3 L 896.3 502.4 L 932.2 448.1 L 968.0 510.6 L 968.0 516.0 L 72.0 516.0 Z" fill="url(#area)"/><path d="M 72.0 516.0 L 107.8 516.0 L 143.7 516.0 L 179.5 472.5 L 215.4 516.0 L 251.2 516.0 L 287.0 516.0 L 322.9 516.0 L 358.7 516.0 L 394.6 516.0 L 430.4 516.0 L 466.2 516.0 L 502.1 516.0 L 537.9 516.0 L 573.8 516.0 L 609.6 516.0 L 645.4 516.0 L 681.3 266.1 L 717.1 258.0 L 753.0 312.3 L 788.8 464.4 L 824.6 478.0 L 860.5 513.3 L 896.3 502.4 L 932.2 448.1 L 968.0 510.6" fill="none" stroke="url(#line)" stroke-width="4" stroke-linecap="round" stroke-linejoin="round"/><circle cx="72.0" cy="516.0" r="3.4" fill="#79c0ff" stroke="#0d1117" stroke-width="2"/><circle cx="107.8" cy="516.0" r="3.4" fill="#79c0ff" stroke="#0d1117" stroke-width="2"/><circle cx="143.7" cy="516.0" r="3.4" fill="#79c0ff" stroke="#0d1117" stroke-width="2"/><circle cx="179.5" cy="472.5" r="3.4" fill="#79c0ff" stroke="#0d1117" stroke-width="2"/><circle cx="215.4" cy="516.0" r="3.4" fill="#79c0ff" stroke="#0d1117" stroke-width="2"/><circle cx="251.2" cy="516.0" r="3.4" fill="#79c0ff" stroke="#0d1117" stroke-width="2"/><circle cx="287.0" cy="516.0" r="3.4" fill="#79c0ff" stroke="#0d1117" stroke-width="2"/><circle cx="322.9" cy="516.0" r="3.4" fill="#79c0ff" stroke="#0d1117" stroke-width="2"/><circle cx="358.7" cy="516.0" r="3.4" fill="#79c0ff" stroke="#0d1117" stroke-width="2"/><circle cx="394.6" cy="516.0" r="3.4" fill="#79c0ff" stroke="#0d1117" stroke-width="2"/><circle cx="430.4" cy="516.0" r="3.4" fill="#79c0ff" stroke="#0d1117" stroke-width="2"/><circle cx="466.2" cy="516.0" r="3.4" fill="#79c0ff" stroke="#0d1117" stroke-width="2"/><circle cx="502.1" cy="516.0" r="3.4" fill="#79c0ff" stroke="#0d1117" stroke-width="2"/><circle cx="537.9" cy="516.0" r="3.4" fill="#79c0ff" stroke="#0d1117" stroke-width="2"/><circle cx="573.8" cy="516.0" r="3.4" fill="#79c0ff" stroke="#0d1117" stroke-width="2"/><circle cx="609.6" cy="516.0" r="3.4" fill="#79c0ff" stroke="#0d1117" stroke-width="2"/><circle cx="645.4" cy="516.0" r="3.4" fill="#79c0ff" stroke="#0d1117" stroke-width="2"/><circle cx="681.3" cy="266.1" r="3.4" fill="#79c0ff" stroke="#0d1117" stroke-width="2"/><circle cx="717.1" cy="258.0" r="3.4" fill="#79c0ff" stroke="#0d1117" stroke-width="2"/><circle cx="753.0" cy="312.3" r="3.4" fill="#79c0ff" stroke="#0d1117" stroke-width="2"/><circle cx="788.8" cy="464.4" r="3.4" fill="#79c0ff" stroke="#0d1117" stroke-width="2"/><circle cx="824.6" cy="478.0" r="3.4" fill="#79c0ff" stroke="#0d1117" stroke-width="2"/><circle cx="860.5" cy="513.3" r="3.4" fill="#79c0ff" stroke="#0d1117" stroke-width="2"/><circle cx="896.3" cy="502.4" r="3.4" fill="#79c0ff" stroke="#0d1117" stroke-width="2"/><circle cx="932.2" cy="448.1" r="3.4" fill="#79c0ff" stroke="#0d1117" stroke-width="2"/><circle cx="968.0" cy="510.6" r="3.4" fill="#79c0ff" stroke="#0d1117" stroke-width="2"/><text x="72.0" y="541.0" class="axis" text-anchor="middle">Feb 22</text><text x="251.2" y="541.0" class="axis" text-anchor="middle">Mar 29</text><text x="430.4" y="541.0" class="axis" text-anchor="middle">May 03</text><text x="609.6" y="541.0" class="axis" text-anchor="middle">Jun 07</text><text x="788.8" y="541.0" class="axis" text-anchor="middle">Jul 12</text><text x="968.0" y="541.0" class="axis" text-anchor="middle">Aug 16</text><text x="44.0" y="590.0" class="section" text-anchor="start">Public repository language distribution</text><text x="44.0" y="632.0" class="language" text-anchor="start">Python</text><rect x="226" y="620" width="650" height="12" rx="6" fill="#21262d"/><rect x="226" y="620" width="482.6" height="12" rx="6" fill="#1f6feb"/><text x="900.0" y="632.0" class="percent" text-anchor="start">74.2%</text><text x="44.0" y="654.0" class="language" text-anchor="start">C</text><rect x="226" y="642" width="650" height="12" rx="6" fill="#21262d"/><rect x="226" y="642" width="82.9" height="12" rx="6" fill="#1f6feb"/><text x="900.0" y="654.0" class="percent" text-anchor="start">12.8%</text><text x="44.0" y="676.0" class="language" text-anchor="start">C++</text><rect x="226" y="664" width="650" height="12" rx="6" fill="#21262d"/><rect x="226" y="664" width="57.2" height="12" rx="6" fill="#1f6feb"/><text x="900.0" y="676.0" class="percent" text-anchor="start">8.8%</text><text x="44.0" y="698.0" class="language" text-anchor="start">Tcl</text><rect x="226" y="686" width="650" height="12" rx="6" fill="#21262d"/><rect x="226" y="686" width="14.7" height="12" rx="6" fill="#1f6feb"/><text x="900.0" y="698.0" class="percent" text-anchor="start">2.3%</text><text x="44.0" y="720.0" class="language" text-anchor="start">TypeScript</text><rect x="226" y="708" width="650" height="12" rx="6" fill="#21262d"/><rect x="226" y="708" width="6.9" height="12" rx="6" fill="#1f6feb"/><text x="900.0" y="720.0" class="percent" text-anchor="start">1.1%</text><text x="44.0" y="742.0" class="language" text-anchor="start">HTML</text><rect x="226" y="730" width="650" height="12" rx="6" fill="#21262d"/><rect x="226" y="730" width="5.7" height="12" rx="6" fill="#1f6feb"/><text x="900.0" y="742.0" class="percent" text-anchor="start">0.9%</text><text x="996.0" y="782.0" class="subtitle" text-anchor="end">Repository bytes indicate code distribution—not proficiency.</text></svg>
