<svg xmlns="http://www.w3.org/2000/svg" width="1040" height="760" viewBox="0 0 1040 760" role="img" aria-labelledby="title desc">
<title id="title">TunSopheak · GitHub Activity</title>
<desc id="desc">Live contribution analytics and language distribution for 2026</desc>

<defs>
  <linearGradient id="bg" x1="0" y1="0" x2="1" y2="1">
    <stop offset="0%" stop-color="#09090b"/>
    <stop offset="100%" stop-color="#0c0c0f"/>
  </linearGradient>

  <linearGradient id="lineGrad" x1="0" y1="0" x2="1" y2="0">
    <stop offset="0%" stop-color="#3b82f6"/>
    <stop offset="100%" stop-color="#a78bfa"/>
  </linearGradient>

  <linearGradient id="areaGrad" x1="0" y1="0" x2="0" y2="1">
    <stop offset="0%" stop-color="#3b82f6" stop-opacity="0.22"/>
    <stop offset="100%" stop-color="#3b82f6" stop-opacity="0"/>
  </linearGradient>

  <linearGradient id="accent" x1="0" y1="0" x2="1" y2="0">
    <stop offset="0%" stop-color="#3b82f6"/>
    <stop offset="100%" stop-color="#8b5cf6"/>
  </linearGradient>

  <style>
    .title { font-family: 'Inter', 'Segoe UI', system-ui, sans-serif; font-size: 22px; font-weight: 600; fill: #fafafa; letter-spacing: -0.3px; }
    .subtitle { font-family: 'Inter', 'Segoe UI', system-ui, sans-serif; font-size: 13px; font-weight: 450; fill: #71717a; }
    .metric { font-family: 'Inter', 'Segoe UI', system-ui, sans-serif; font-size: 28px; font-weight: 650; fill: #fafafa; letter-spacing: -0.5px; }
    .metricLabel { font-family: 'Inter', 'Segoe UI', system-ui, sans-serif; font-size: 11px; font-weight: 500; fill: #71717a; letter-spacing: 0.4px; }
    .section { font-family: 'Inter', 'Segoe UI', system-ui, sans-serif; font-size: 13px; font-weight: 550; fill: #a1a1aa; letter-spacing: 0.2px; }
    .axis { font-family: 'Inter', 'Segoe UI', system-ui, sans-serif; font-size: 11px; font-weight: 450; fill: #52525b; }
    .lang { font-family: 'Inter', 'Segoe UI', system-ui, sans-serif; font-size: 13px; font-weight: 500; fill: #e4e4e7; }
    .pct { font-family: 'Inter', 'Segoe UI', system-ui, sans-serif; font-size: 12px; font-weight: 500; fill: #71717a; }
    .footer { font-family: 'Inter', 'Segoe UI', system-ui, sans-serif; font-size: 11.5px; font-weight: 450; fill: #52525b; }
  </style>
</defs>

<!-- Background -->
<rect width="1040" height="760" rx="20" fill="url(#bg)" stroke="#27272a" stroke-width="1"/>

<!-- Header -->
<text x="40.0" y="42.0" class="title" text-anchor="start">GitHub Activity</text>
<text x="40.0" y="64.0" class="subtitle" text-anchor="start">@TunSopheak · 2026</text>
<text x="1000.0" y="42.0" class="subtitle" text-anchor="end">02 Sep 2026 · 11:42</text>

<!-- Subtle top accent -->
<rect x="40" y="80" width="80" height="2" rx="1" fill="url(#accent)"/>
<rect x="40" y="100" width="230" height="92" rx="12" fill="#18181b" stroke="#27272a"/><text x="60.0" y="148.0" class="metric" text-anchor="start">440</text><text x="60.0" y="172.0" class="metricLabel" text-anchor="start">Contributions</text><rect x="286" y="100" width="230" height="92" rx="12" fill="#18181b" stroke="#27272a"/><text x="306.0" y="148.0" class="metric" text-anchor="start">37</text><text x="306.0" y="172.0" class="metricLabel" text-anchor="start">Active days</text><rect x="532" y="100" width="230" height="92" rx="12" fill="#18181b" stroke="#27272a"/><text x="552.0" y="148.0" class="metric" text-anchor="start">6d</text><text x="552.0" y="172.0" class="metricLabel" text-anchor="start">Longest streak</text><rect x="778" y="100" width="230" height="92" rx="12" fill="#18181b" stroke="#27272a"/><text x="798.0" y="148.0" class="metric" text-anchor="start">6d</text><text x="798.0" y="172.0" class="metricLabel" text-anchor="start">Current streak</text><text x="40.0" y="230.0" class="section" text-anchor="start">CONTRIBUTION TREND · 2026</text><rect x="40" y="246" width="960" height="250" rx="14" fill="#18181b" stroke="#27272a"/><line x1="72" y1="278.0" x2="968" y2="278.0" stroke="#27272a" stroke-width="1"/><text x="62.0" y="282.0" class="axis" text-anchor="end">130</text><line x1="72" y1="330.5" x2="968" y2="330.5" stroke="#27272a" stroke-width="1"/><text x="62.0" y="334.5" class="axis" text-anchor="end">98</text><line x1="72" y1="383.0" x2="968" y2="383.0" stroke="#27272a" stroke-width="1"/><text x="62.0" y="387.0" class="axis" text-anchor="end">65</text><line x1="72" y1="435.5" x2="968" y2="435.5" stroke="#27272a" stroke-width="1"/><text x="62.0" y="439.5" class="axis" text-anchor="end">32</text><line x1="72" y1="488.0" x2="968" y2="488.0" stroke="#27272a" stroke-width="1"/><text x="62.0" y="492.0" class="axis" text-anchor="end">0</text><path d="M 72.0 488.0 L 107.8 462.2 L 143.7 488.0 L 179.5 488.0 L 215.4 488.0 L 251.2 488.0 L 287.0 488.0 L 322.9 488.0 L 358.7 488.0 L 394.6 488.0 L 430.4 488.0 L 466.2 488.0 L 502.1 488.0 L 537.9 488.0 L 573.8 415.3 L 609.6 279.6 L 645.4 407.2 L 681.3 426.6 L 717.1 434.7 L 753.0 488.0 L 788.8 486.4 L 824.6 439.5 L 860.5 488.0 L 896.3 446.0 L 932.2 488.0 L 968.0 371.7 L 968.0 488.0 L 72.0 488.0 Z" fill="url(#areaGrad)"/><path d="M 72.0 488.0 L 107.8 462.2 L 143.7 488.0 L 179.5 488.0 L 215.4 488.0 L 251.2 488.0 L 287.0 488.0 L 322.9 488.0 L 358.7 488.0 L 394.6 488.0 L 430.4 488.0 L 466.2 488.0 L 502.1 488.0 L 537.9 488.0 L 573.8 415.3 L 609.6 279.6 L 645.4 407.2 L 681.3 426.6 L 717.1 434.7 L 753.0 488.0 L 788.8 486.4 L 824.6 439.5 L 860.5 488.0 L 896.3 446.0 L 932.2 488.0 L 968.0 371.7" fill="none" stroke="url(#lineGrad)" stroke-width="2.8" stroke-linecap="round" stroke-linejoin="round"/><circle cx="72.0" cy="488.0" r="2.6" fill="#60a5fa" stroke="#09090b" stroke-width="1.5"/><circle cx="107.8" cy="462.2" r="2.6" fill="#60a5fa" stroke="#09090b" stroke-width="1.5"/><circle cx="143.7" cy="488.0" r="2.6" fill="#60a5fa" stroke="#09090b" stroke-width="1.5"/><circle cx="179.5" cy="488.0" r="2.6" fill="#60a5fa" stroke="#09090b" stroke-width="1.5"/><circle cx="215.4" cy="488.0" r="2.6" fill="#60a5fa" stroke="#09090b" stroke-width="1.5"/><circle cx="251.2" cy="488.0" r="2.6" fill="#60a5fa" stroke="#09090b" stroke-width="1.5"/><circle cx="287.0" cy="488.0" r="2.6" fill="#60a5fa" stroke="#09090b" stroke-width="1.5"/><circle cx="322.9" cy="488.0" r="2.6" fill="#60a5fa" stroke="#09090b" stroke-width="1.5"/><circle cx="358.7" cy="488.0" r="2.6" fill="#60a5fa" stroke="#09090b" stroke-width="1.5"/><circle cx="394.6" cy="488.0" r="2.6" fill="#60a5fa" stroke="#09090b" stroke-width="1.5"/><circle cx="430.4" cy="488.0" r="2.6" fill="#60a5fa" stroke="#09090b" stroke-width="1.5"/><circle cx="466.2" cy="488.0" r="2.6" fill="#60a5fa" stroke="#09090b" stroke-width="1.5"/><circle cx="502.1" cy="488.0" r="2.6" fill="#60a5fa" stroke="#09090b" stroke-width="1.5"/><circle cx="537.9" cy="488.0" r="2.6" fill="#60a5fa" stroke="#09090b" stroke-width="1.5"/><circle cx="573.8" cy="415.3" r="2.6" fill="#60a5fa" stroke="#09090b" stroke-width="1.5"/><circle cx="609.6" cy="279.6" r="5.5" fill="#3b82f6" opacity="0.2"/><circle cx="609.6" cy="279.6" r="3.8" fill="#93c5fd" stroke="#09090b" stroke-width="2"/><circle cx="645.4" cy="407.2" r="2.6" fill="#60a5fa" stroke="#09090b" stroke-width="1.5"/><circle cx="681.3" cy="426.6" r="2.6" fill="#60a5fa" stroke="#09090b" stroke-width="1.5"/><circle cx="717.1" cy="434.7" r="2.6" fill="#60a5fa" stroke="#09090b" stroke-width="1.5"/><circle cx="753.0" cy="488.0" r="2.6" fill="#60a5fa" stroke="#09090b" stroke-width="1.5"/><circle cx="788.8" cy="486.4" r="2.6" fill="#60a5fa" stroke="#09090b" stroke-width="1.5"/><circle cx="824.6" cy="439.5" r="2.6" fill="#60a5fa" stroke="#09090b" stroke-width="1.5"/><circle cx="860.5" cy="488.0" r="2.6" fill="#60a5fa" stroke="#09090b" stroke-width="1.5"/><circle cx="896.3" cy="446.0" r="2.6" fill="#60a5fa" stroke="#09090b" stroke-width="1.5"/><circle cx="932.2" cy="488.0" r="2.6" fill="#60a5fa" stroke="#09090b" stroke-width="1.5"/><circle cx="968.0" cy="371.7" r="2.6" fill="#60a5fa" stroke="#09090b" stroke-width="1.5"/><text x="72.0" y="510.0" class="axis" text-anchor="middle">Mar 11</text><text x="251.2" y="510.0" class="axis" text-anchor="middle">Apr 15</text><text x="430.4" y="510.0" class="axis" text-anchor="middle">May 20</text><text x="609.6" y="510.0" class="axis" text-anchor="middle">Jun 24</text><text x="788.8" y="510.0" class="axis" text-anchor="middle">Jul 29</text><text x="968.0" y="510.0" class="axis" text-anchor="middle">Sep 02</text><text x="40.0" y="530.0" class="section" text-anchor="start">TOP LANGUAGES</text><circle cx="48" cy="558" r="4.5" fill="#3572A5"/><text x="62.0" y="562.0" class="lang" text-anchor="start">Python</text><rect x="200" y="552" width="720" height="10" rx="5" fill="#27272a"/><rect x="200" y="552" width="539.3" height="10" rx="5" fill="#3572A5"/><text x="940.0" y="562.0" class="pct" text-anchor="start">74.9%</text><circle cx="48" cy="586" r="4.5" fill="#555555"/><text x="62.0" y="590.0" class="lang" text-anchor="start">C</text><rect x="200" y="580" width="720" height="10" rx="5" fill="#27272a"/><rect x="200" y="580" width="92.6" height="10" rx="5" fill="#555555"/><text x="940.0" y="590.0" class="pct" text-anchor="start">12.9%</text><circle cx="48" cy="614" r="4.5" fill="#f34b7d"/><text x="62.0" y="618.0" class="lang" text-anchor="start">C++</text><rect x="200" y="608" width="720" height="10" rx="5" fill="#27272a"/><rect x="200" y="608" width="63.9" height="10" rx="5" fill="#f34b7d"/><text x="940.0" y="618.0" class="pct" text-anchor="start">8.9%</text><circle cx="48" cy="642" r="4.5" fill="#e4cc98"/><text x="62.0" y="646.0" class="lang" text-anchor="start">Tcl</text><rect x="200" y="636" width="720" height="10" rx="5" fill="#27272a"/><rect x="200" y="636" width="16.4" height="10" rx="5" fill="#e4cc98"/><text x="940.0" y="646.0" class="pct" text-anchor="start">2.3%</text><circle cx="48" cy="670" r="4.5" fill="#3178c6"/><text x="62.0" y="674.0" class="lang" text-anchor="start">TypeScript</text><rect x="200" y="664" width="720" height="10" rx="5" fill="#27272a"/><rect x="200" y="664" width="8.0" height="10" rx="5" fill="#3178c6"/><text x="940.0" y="674.0" class="pct" text-anchor="start">1.1%</text><text x="1000.0" y="732.0" class="footer" text-anchor="end">Public repositories only · Synced via GitHub Actions</text></svg>
